<svg xmlns="http://www.w3.org/2000/svg" viewBox="0 0 76.42 186.77"><g id="Calque_2" data-name="Calque 2" width='120%' height='120%'><g id="Calque_1-2" data-name="Calque 1"><path d="M58.38,183.1a6.78,6.78,0,0,1-6,3.65l-.7,0-24-.18C3.76,186.41,3,162.88,3,162.88V110.71A24.65,24.65,0,0,1,7.83,96.33a2,2,0,0,1,2.79-.41,30.51,30.51,0,0,0,6.46,3.64c4.08,1.67,4.86.86,5.47,2.53.73,2-6.29,7.07-6.39,14.87,0,0-.12,22.18,0,38.91.11,15.14,16.7,16.59,16.75,16.33H53.59c2.84.18,3.39.66,4.62,2.66A9.11,9.11,0,0,1,58.38,183.1Zm17.68-20.21V110.73c0-25.17-26.9-24.31-26.9-24.31s-7.53-.18-16.33-.18c-7.76,0-12.51-5.44-14.79-9.56-1.57-2.82-1.57-7.06-1.57-7.06V52.78a.57.57,0,0,0-1.13-.1c-.51,2.85-.15,5-1.78,4.89-1.28-.09-2.6-.09-3.6-.06s-2.33,0-3.6.06c-1.57.1-1.3-1.89-1.74-4.58a.73.73,0,0,0-1.45.12V75.8c0,25.63,29.43,24.47,29.66,24.49,0,0,2.5,0,13.57,0,16.55,0,16.87,16.34,16.87,16.34s.14,23.62,0,39.16c-.08,9.08-8.79,11.4-6.32,14.56l.7.64c1.13.91,3.18.72,4.4,2.88,2,3.48,1.4,7.55-.26,9.62-.65.81-.75,1.47-.18,1.83.6.16,1,0,2.06-.4C76.34,180.56,76.06,162.89,76.06,162.89ZM76.42,23.7S75.58.08,51.67.08C47.88.08,27.82,0,27.82,0A25.22,25.22,0,0,0,2.75,25.22v2.67A12.9,12.9,0,0,0,0,33.09a5.43,5.43,0,0,1,.55,3.62,6.52,6.52,0,0,1-.27,1,17.27,17.27,0,0,0,2,3c3.94,5,1.54,10.47,4.12,10.3,1.27-.09,2.59-.09,3.6-.07s2.32,0,3.6.07c2.58.17.17-5.32,4.12-10.3a17.27,17.27,0,0,0,2-3,6.52,6.52,0,0,1-.27-1,5.37,5.37,0,0,1,.55-3.62,13.26,13.26,0,0,0-3.1-5.6c1-6.86,7.58-13.07,15.83-13.45H46.56c.13,0,16.64-.09,16.67,16.68,0,13.24,0,36.78,0,36.78v1.78c-.1,7.81-7.13,12.84-6.39,14.88.61,1.67,1.38.86,5.47,2.52a30.4,30.4,0,0,1,6.45,3.64,2,2,0,0,0,2.8-.41,24.58,24.58,0,0,0,4.85-14.38V23.7Z" style="fill:#fff"/></g></g></svg>